<svg xmlns="http://www.w3.org/2000/svg" xmlns:xlink="http://www.w3.org/1999/xlink" width="800" zoomAndPan="magnify" viewBox="0 0 600 599.999999" height="800" preserveAspectRatio="xMidYMid meet" version="1.2"><g id="38dff8d1f1"><path style=" stroke:none;fill-rule:nonzero;fill:#415eb3;fill-opacity:1;" d="M 600 300 C 600 304.910156 599.878906 309.816406 599.636719 314.71875 C 599.398438 319.625 599.035156 324.519531 598.554688 329.40625 C 598.074219 334.292969 597.472656 339.164062 596.753906 344.019531 C 596.03125 348.875 595.191406 353.710938 594.234375 358.527344 C 593.277344 363.34375 592.203125 368.132812 591.007812 372.894531 C 589.816406 377.65625 588.507812 382.386719 587.082031 387.085938 C 585.65625 391.785156 584.117188 396.445312 582.464844 401.066406 C 580.808594 405.691406 579.042969 410.269531 577.164062 414.804688 C 575.285156 419.339844 573.296875 423.828125 571.195312 428.265625 C 569.097656 432.703125 566.890625 437.089844 564.578125 441.417969 C 562.261719 445.75 559.84375 450.019531 557.320312 454.230469 C 554.792969 458.441406 552.167969 462.589844 549.441406 466.671875 C 546.714844 470.753906 543.886719 474.765625 540.960938 478.710938 C 538.039062 482.652344 535.019531 486.523438 531.902344 490.316406 C 528.789062 494.113281 525.582031 497.828125 522.285156 501.46875 C 518.988281 505.105469 515.605469 508.660156 512.132812 512.132812 C 508.660156 515.605469 505.105469 518.988281 501.46875 522.285156 C 497.828125 525.582031 494.113281 528.789062 490.316406 531.902344 C 486.523438 535.019531 482.652344 538.039062 478.710938 540.960938 C 474.765625 543.886719 470.753906 546.714844 466.671875 549.441406 C 462.589844 552.167969 458.441406 554.792969 454.230469 557.320312 C 450.019531 559.84375 445.75 562.261719 441.417969 564.578125 C 437.089844 566.890625 432.703125 569.097656 428.265625 571.195312 C 423.828125 573.296875 419.339844 575.285156 414.804688 577.164062 C 410.269531 579.042969 405.691406 580.808594 401.066406 582.464844 C 396.445312 584.117188 391.785156 585.65625 387.085938 587.082031 C 382.386719 588.507812 377.65625 589.816406 372.894531 591.007812 C 368.132812 592.203125 363.34375 593.277344 358.527344 594.234375 C 353.710938 595.191406 348.875 596.03125 344.019531 596.753906 C 339.164062 597.472656 334.292969 598.074219 329.40625 598.554688 C 324.519531 599.035156 319.625 599.398438 314.71875 599.636719 C 309.816406 599.878906 304.910156 600 300 600 C 295.089844 600 290.183594 599.878906 285.28125 599.636719 C 280.375 599.398438 275.480469 599.035156 270.59375 598.554688 C 265.707031 598.074219 260.835938 597.472656 255.980469 596.753906 C 251.125 596.03125 246.289062 595.191406 241.472656 594.234375 C 236.65625 593.277344 231.867188 592.203125 227.105469 591.007812 C 222.34375 589.816406 217.613281 588.507812 212.914062 587.082031 C 208.214844 585.65625 203.554688 584.117188 198.933594 582.464844 C 194.308594 580.808594 189.730469 579.042969 185.195312 577.164062 C 180.660156 575.285156 176.171875 573.296875 171.734375 571.195312 C 167.296875 569.097656 162.910156 566.890625 158.582031 564.578125 C 154.25 562.261719 149.980469 559.84375 145.769531 557.320312 C 141.558594 554.792969 137.410156 552.167969 133.328125 549.441406 C 129.246094 546.714844 125.234375 543.886719 121.289062 540.960938 C 117.347656 538.039062 113.476562 535.019531 109.683594 531.902344 C 105.886719 528.789062 102.171875 525.582031 98.53125 522.285156 C 94.894531 518.988281 91.339844 515.605469 87.867188 512.132812 C 84.394531 508.660156 81.011719 505.105469 77.714844 501.46875 C 74.417969 497.828125 71.210938 494.113281 68.097656 490.316406 C 64.980469 486.523438 61.960938 482.652344 59.039062 478.710938 C 56.113281 474.765625 53.285156 470.753906 50.558594 466.671875 C 47.832031 462.589844 45.207031 458.441406 42.679688 454.230469 C 40.15625 450.019531 37.738281 445.75 35.421875 441.417969 C 33.109375 437.089844 30.902344 432.703125 28.804688 428.265625 C 26.703125 423.828125 24.714844 419.339844 22.835938 414.804688 C 20.957031 410.269531 19.191406 405.691406 17.535156 401.066406 C 15.882812 396.445312 14.34375 391.785156 12.917969 387.085938 C 11.492188 382.386719 10.183594 377.65625 8.992188 372.894531 C 7.796875 368.132812 6.722656 363.34375 5.765625 358.527344 C 4.804688 353.710938 3.96875 348.875 3.246094 344.019531 C 2.527344 339.164062 1.925781 334.292969 1.445312 329.40625 C 0.964844 324.519531 0.601562 319.625 0.363281 314.71875 C 0.121094 309.816406 0 304.910156 0 300 C 0 295.089844 0.121094 290.183594 0.363281 285.28125 C 0.601562 280.375 0.964844 275.480469 1.445312 270.59375 C 1.925781 265.707031 2.527344 260.835938 3.246094 255.980469 C 3.96875 251.125 4.804688 246.289062 5.765625 241.472656 C 6.722656 236.65625 7.796875 231.867188 8.992188 227.105469 C 10.183594 222.34375 11.492188 217.613281 12.917969 212.914062 C 14.34375 208.214844 15.882812 203.554688 17.535156 198.933594 C 19.191406 194.308594 20.957031 189.730469 22.835938 185.195312 C 24.714844 180.660156 26.703125 176.171875 28.804688 171.734375 C 30.902344 167.296875 33.109375 162.910156 35.421875 158.582031 C 37.738281 154.25 40.15625 149.980469 42.679688 145.769531 C 45.207031 141.558594 47.832031 137.410156 50.558594 133.328125 C 53.285156 129.246094 56.113281 125.234375 59.039062 121.289062 C 61.960938 117.347656 64.980469 113.476562 68.097656 109.683594 C 71.210938 105.886719 74.417969 102.171875 77.714844 98.53125 C 81.011719 94.894531 84.394531 91.339844 87.867188 87.867188 C 91.339844 84.394531 94.894531 81.011719 98.53125 77.714844 C 102.171875 74.417969 105.886719 71.210938 109.683594 68.097656 C 113.476562 64.980469 117.347656 61.960938 121.289062 59.039062 C 125.234375 56.113281 129.246094 53.285156 133.328125 50.558594 C 137.410156 47.832031 141.558594 45.207031 145.769531 42.679688 C 149.980469 40.15625 154.25 37.738281 158.582031 35.421875 C 162.910156 33.109375 167.296875 30.902344 171.734375 28.804688 C 176.171875 26.703125 180.660156 24.714844 185.195312 22.835938 C 189.730469 20.957031 194.308594 19.191406 198.933594 17.535156 C 203.554688 15.882812 208.214844 14.34375 212.914062 12.917969 C 217.613281 11.492188 222.34375 10.183594 227.105469 8.992188 C 231.867188 7.796875 236.65625 6.722656 241.472656 5.765625 C 246.289062 4.804688 251.125 3.96875 255.980469 3.246094 C 260.835938 2.527344 265.707031 1.925781 270.59375 1.445312 C 275.480469 0.964844 280.375 0.601562 285.28125 0.363281 C 290.183594 0.121094 295.089844 0 300 0 C 304.910156 0 309.816406 0.121094 314.71875 0.363281 C 319.625 0.601562 324.519531 0.964844 329.40625 1.445312 C 334.292969 1.925781 339.164062 2.527344 344.019531 3.246094 C 348.875 3.96875 353.710938 4.804688 358.527344 5.765625 C 363.34375 6.722656 368.132812 7.796875 372.894531 8.992188 C 377.65625 10.183594 382.386719 11.492188 387.085938 12.917969 C 391.785156 14.34375 396.445312 15.882812 401.066406 17.535156 C 405.691406 19.191406 410.269531 20.957031 414.804688 22.835938 C 419.339844 24.714844 423.828125 26.703125 428.265625 28.804688 C 432.703125 30.902344 437.089844 33.109375 441.417969 35.421875 C 445.75 37.738281 450.019531 40.15625 454.230469 42.679688 C 458.441406 45.207031 462.589844 47.832031 466.671875 50.558594 C 470.753906 53.285156 474.765625 56.113281 478.710938 59.039062 C 482.652344 61.960938 486.523438 64.980469 490.316406 68.097656 C 494.113281 71.210938 497.828125 74.417969 501.46875 77.714844 C 505.105469 81.011719 508.660156 84.394531 512.132812 87.867188 C 515.605469 91.339844 518.988281 94.894531 522.285156 98.53125 C 525.582031 102.171875 528.789062 105.886719 531.902344 109.683594 C 535.019531 113.476562 538.039062 117.347656 540.960938 121.289062 C 543.886719 125.234375 546.714844 129.246094 549.441406 133.328125 C 552.167969 137.410156 554.792969 141.558594 557.320312 145.769531 C 559.84375 149.980469 562.261719 154.25 564.578125 158.582031 C 566.890625 162.910156 569.097656 167.296875 571.195312 171.734375 C 573.296875 176.171875 575.285156 180.660156 577.164062 185.195312 C 579.042969 189.730469 580.808594 194.308594 582.464844 198.933594 C 584.117188 203.554688 585.65625 208.214844 587.082031 212.914062 C 588.507812 217.613281 589.816406 222.34375 591.007812 227.105469 C 592.203125 231.867188 593.277344 236.65625 594.234375 241.472656 C 595.191406 246.289062 596.03125 251.125 596.753906 255.980469 C 597.472656 260.835938 598.074219 265.707031 598.554688 270.59375 C 599.035156 275.480469 599.398438 280.375 599.636719 285.28125 C 599.878906 290.183594 600 295.089844 600 300 Z M 600 300 "/><path style=" stroke:none;fill-rule:nonzero;fill:#ffffff;fill-opacity:1;" d="M 174.25 156.25 C 174.25 156 174.375 155.875 174.5 155.625 C 187.75 123.125 212.375 131.75 232.125 138.75 C 242.375 142.375 253 146.125 262.125 144.875 C 271 143.75 279.375 149.25 281.875 157.875 C 282 152.625 280.5 147.875 278.75 144 C 272.5 130.625 258.625 122.125 249.75 122.625 C 248 122.75 246.25 122.875 244.625 123 C 233 123.75 223.75 124.375 218.375 117.75 C 216.125 115 215.25 111.625 215.125 108 C 210.875 109.125 206.75 109.5 203.125 109.875 C 191.875 111 191.875 111.75 192.125 117.25 C 192.25 119.75 191 122 188.875 123.375 C 178.625 129.5 173 138.125 172.25 148.875 C 172 153 172.375 157.125 173.25 161 C 173.5 159.25 173.875 157.75 174.25 156.25 Z M 174.25 156.25 "/><path style=" stroke:none;fill-rule:nonzero;fill:#ffffff;fill-opacity:1;" d="M 270.125 183.25 C 270.875 175.625 270.5 168.125 268.75 161.5 C 268.125 159.25 266.125 157.875 263.875 158.125 C 251.5 159.75 239.375 155.5 227.625 151.375 C 206 143.75 195.125 141 187.125 160.375 C 185 167.875 184.625 176.875 185.875 186 C 185.875 186.125 185.875 186.375 186 186.5 C 187.75 198.875 192.375 211.375 199.25 220.5 C 204.5 227.625 213.625 236 227.125 236 L 228.75 236 C 234 236 238.875 234.75 243.5 232.25 C 245.25 231.375 246.875 230.25 248.375 229 C 248.625 228.75 248.75 228.625 249 228.5 C 251.375 226.5 253.75 224.125 255.875 221.25 C 263.375 211.625 268.375 198 270 184.75 C 270 184.375 270 183.875 270.125 183.25 Z M 270.125 183.25 "/><path style=" stroke:none;fill-rule:nonzero;fill:#ffffff;fill-opacity:1;" d="M 247.25 245.625 C 241.5 248.25 235.25 249.625 228.625 249.625 L 227 249.625 C 220.375 249.625 214.25 248.25 208.375 245.625 C 205.625 257.125 198 263.875 189 268.5 C 212.25 285.625 243.375 285.625 266.5 268.5 C 257.625 263.875 250 257.125 247.25 245.625 Z M 247.25 245.625 "/><path style=" stroke:none;fill-rule:nonzero;fill:#ffffff;fill-opacity:1;" d="M 466.375 317 L 333.625 317 C 333.5 317 333.5 317 333.375 317 L 264.875 317 C 260.75 317 257.375 320.375 257.375 324.5 L 257.375 346.5 L 474.125 346.5 L 474.125 324.5 C 473.875 320.375 470.5 317 466.375 317 Z M 289.375 338.625 L 275.625 338.625 C 271.875 338.625 268.875 335.625 268.875 331.875 C 268.875 328.125 271.875 325.125 275.625 325.125 L 289.375 325.125 C 293.125 325.125 296.125 328.125 296.125 331.875 C 296.125 335.625 293 338.625 289.375 338.625 Z M 319.25 338.625 L 305.5 338.625 C 301.75 338.625 298.75 335.625 298.75 331.875 C 298.75 328.125 301.75 325.125 305.5 325.125 L 319.25 325.125 C 323 325.125 326 328.125 326 331.875 C 326 335.625 323 338.625 319.25 338.625 Z M 455.5 338.625 L 364.5 338.625 C 360.75 338.625 357.75 335.625 357.75 331.875 C 357.75 328.125 360.75 325.125 364.5 325.125 L 455.5 325.125 C 459.25 325.125 462.25 328.125 462.25 331.875 C 462.25 335.625 459.25 338.625 455.5 338.625 Z M 455.5 338.625 "/><path style=" stroke:none;fill-rule:nonzero;fill:#ffffff;fill-opacity:1;" d="M 257.125 484.5 C 257.125 488.625 260.5 492 264.625 492 L 466.25 492 C 470.375 492 473.75 488.625 473.75 484.5 L 473.75 360.25 L 257.125 360.25 Z M 424.625 371.375 L 433.875 371.375 C 440.5 371.375 446 376.75 446 383.5 L 446 412 L 453.125 414.875 C 457.75 416.75 460.75 421.125 460.75 426.125 C 460.75 431.125 457.75 435.5 453.125 437.375 L 446 440.25 L 446 468.75 C 446 475.375 440.625 480.875 433.875 480.875 L 424.625 480.875 C 420.875 480.875 417.875 477.875 417.875 474.125 C 417.875 470.375 420.875 467.375 424.625 467.375 L 432.5 467.375 L 432.5 439.375 C 432.5 434.375 435.5 430 440.125 428.125 L 444.875 426.25 L 440.125 424.375 C 435.5 422.5 432.5 418.125 432.5 413.125 L 432.5 385.125 L 424.625 385.125 C 420.875 385.125 417.875 382.125 417.875 378.375 C 417.875 374.375 421 371.375 424.625 371.375 Z M 389.875 418 C 386.75 415.875 386 411.75 388 408.625 C 390.125 405.5 394.25 404.75 397.375 406.75 L 417.75 420.5 C 419.625 421.75 420.75 423.875 420.75 426.125 C 420.75 428.375 419.625 430.5 417.75 431.75 L 397.375 445.5 C 396.25 446.25 394.875 446.625 393.625 446.625 C 391.5 446.625 389.25 445.625 388 443.625 C 385.875 440.5 386.75 436.375 389.875 434.25 L 402 426.125 Z M 358 406 C 361.5 404.75 365.375 406.5 366.75 410 L 377 437.5 C 378.375 441 376.5 444.875 373 446.25 C 372.25 446.5 371.375 446.625 370.625 446.625 C 367.875 446.625 365.25 445 364.25 442.25 L 354 414.75 C 352.75 411.25 354.5 407.25 358 406 Z M 333.625 406.75 C 336.75 404.625 340.875 405.5 343 408.625 C 345.125 411.75 344.25 415.875 341.125 418 L 329 426.125 L 341.125 434.25 C 344.25 436.375 345 440.5 343 443.625 C 341.75 445.625 339.625 446.625 337.375 446.625 C 336.125 446.625 334.75 446.25 333.625 445.5 L 313.25 431.75 C 311.375 430.5 310.25 428.375 310.25 426.125 C 310.25 423.875 311.375 421.75 313.25 420.5 Z M 277.875 414.875 L 285 412 L 285 383.5 C 285 376.875 290.375 371.375 297.125 371.375 L 306.375 371.375 C 310.125 371.375 313.125 374.375 313.125 378.125 C 313.125 381.875 310.125 384.875 306.375 384.875 L 298.5 384.875 L 298.5 412.875 C 298.5 417.875 295.5 422.25 290.875 424.125 L 286.125 426 L 290.875 427.875 C 295.5 429.75 298.5 434.125 298.5 439.125 L 298.5 467.125 L 306.375 467.125 C 310.125 467.125 313.125 470.125 313.125 473.875 C 313.125 477.625 310.125 480.625 306.375 480.625 L 297.125 480.625 C 290.5 480.625 285 475.25 285 468.5 L 285 440 L 277.875 437.125 C 273.25 435.25 270.25 430.875 270.25 425.875 C 270.25 421.125 273.25 416.75 277.875 414.875 Z M 277.875 414.875 "/><path style=" stroke:none;fill-rule:nonzero;fill:#ffffff;fill-opacity:1;" d="M 323.625 303.5 C 315.5 286.625 300.25 281.25 284.25 275.625 C 283.125 275.25 282 274.875 280.75 274.375 C 266.125 287.625 247.5 294.75 227.875 294.75 C 208.25 294.75 189.625 287.5 175 274.375 C 173.875 274.75 172.75 275.25 171.625 275.625 C 148.25 283.75 126.25 291.5 126.25 335 L 126.25 362.5 L 243.75 362.5 L 243.75 324.625 C 243.75 313 253.25 303.5 264.875 303.5 Z M 323.625 303.5 "/><path style=" stroke:none;fill-rule:nonzero;fill:#ffffff;fill-opacity:1;" d="M 392.75 273.125 C 429.5 273.125 459.25 243.25 459.25 206.625 C 459.25 170 429.5 140 392.75 140 C 356.125 140 326.25 169.875 326.25 206.5 C 326.25 243.125 356.125 273.125 392.75 273.125 Z M 353.375 215.125 C 356 212.5 360.25 212.5 363 215.125 L 372.375 224.5 L 422.625 174.125 C 425.25 171.5 429.5 171.5 432.25 174.125 C 434.875 176.75 434.875 181 432.25 183.75 L 377.125 238.875 C 375.875 240.125 374.125 240.875 372.375 240.875 C 370.625 240.875 368.875 240.125 367.625 238.875 L 353.375 224.625 C 350.75 222 350.75 217.75 353.375 215.125 Z M 353.375 215.125 "/></g></svg>